<?xml version="1.0" standalone="no"?>
<!DOCTYPE svg PUBLIC "-//W3C//DTD SVG 20010904//EN"
 "http://www.w3.org/TR/2001/REC-SVG-20010904/DTD/svg10.dtd">
<svg version="1.0" xmlns="http://www.w3.org/2000/svg"
 width="260.000000pt" height="260.000000pt" viewBox="0 0 260.000000 260.000000"
 preserveAspectRatio="xMidYMid meet">
<metadata>
Created by potrace 1.11, written by Peter Selinger 2001-2013
</metadata>
<g transform="translate(0.000000,260.000000) scale(0.100000,-0.100000)"
fill="#000000" stroke="none">
<path d="M892 2320 c88 -15 147 -41 198 -87 126 -113 99 -303 -56 -400 -18
-11 -18 -12 -1 -12 50 -2 128 -64 163 -131 26 -49 25 -161 -1 -214 -41 -85
-130 -143 -250 -165 -34 -6 -189 -11 -367 -11 l-308 0 0 -65 0 -66 166 -192
c92 -106 169 -193 173 -194 3 -1 80 86 171 192 l165 194 138 0 137 1 0 -450 0
-450 80 0 80 0 0 450 0 450 134 0 134 0 144 -167 c80 -93 156 -181 170 -197
l25 -29 171 199 172 199 0 62 0 63 -475 0 -475 0 0 515 0 515 -267 -1 c-170
-1 -251 -4 -221 -9z"/>
<path d="M1650 1925 l0 -405 340 0 340 0 0 405 0 405 -340 0 -340 0 0 -405z"/>
<path d="M270 2015 l0 -105 270 0 c209 0 278 3 304 14 89 37 88 153 -1 187
-13 5 -148 9 -299 9 l-274 0 0 -105z"/>
<path d="M277 1713 c-4 -3 -7 -51 -7 -105 l0 -98 290 0 c307 0 334 3 374 48
10 12 18 36 18 58 0 50 -33 81 -101 94 -59 11 -564 14 -574 3z"/>
<path d="M270 563 l0 -293 340 0 340 0 0 290 c0 160 -2 290 -4 290 -2 0 -77
-85 -167 -190 -89 -105 -166 -190 -170 -190 -5 0 -216 239 -321 365 -16 19
-17 5 -18 -272z"/>
<path d="M1640 561 l0 -291 345 0 345 0 0 290 c0 160 -2 290 -4 290 -2 0 -77
-84 -166 -187 -89 -104 -166 -189 -170 -191 -5 -2 -81 82 -171 185 -89 103
-166 190 -171 191 -4 2 -8 -127 -8 -287z"/>
</g>
</svg>
